<svg width="22" height="21" viewBox="0 0 22 21" fill="none" xmlns="http://www.w3.org/2000/svg">
<path d="M11.1449 1.5C9.48439 1.50052 7.85507 1.95487 6.43053 2.81466C5.00598 3.67445 3.83956 4.90747 3.05549 6.3824C2.27142 7.85733 1.89907 9.51894 1.9781 11.1902C2.05714 12.8615 2.58459 14.4799 3.50428 15.8731L1.96484 20L7.11982 19.0608C8.36112 19.672 9.72333 19.993 11.1049 19.9999C12.4865 20.0068 13.8518 19.6994 15.099 19.1006C16.3463 18.5018 17.4433 17.6271 18.3083 16.5416C19.1734 15.4561 19.7841 14.188 20.095 12.8316C20.4059 11.4752 20.409 10.0655 20.1039 8.70778C19.7989 7.35003 19.1937 6.07916 18.3333 4.98991C17.473 3.90065 16.3798 3.02111 15.1351 2.41685C13.8905 1.81258 12.5265 1.49918 11.1449 1.5V1.5Z" stroke="#000001" stroke-width="2" stroke-linecap="round" stroke-linejoin="round"/>
</svg>
